<?xml version="1.0" encoding="UTF-8" standalone="no"?>
<!-- Created with Inkscape (http://www.inkscape.org/) -->

<svg
   xmlns:osb="http://www.openswatchbook.org/uri/2009/osb"
   xmlns:dc="http://purl.org/dc/elements/1.1/"
   xmlns:cc="http://creativecommons.org/ns#"
   xmlns:rdf="http://www.w3.org/1999/02/22-rdf-syntax-ns#"
   xmlns:svg="http://www.w3.org/2000/svg"
   xmlns="http://www.w3.org/2000/svg"
   xmlns:sodipodi="http://sodipodi.sourceforge.net/DTD/sodipodi-0.dtd"
   xmlns:inkscape="http://www.inkscape.org/namespaces/inkscape"
   width="744.09448819"
   height="1052.3622047"
   id="svg8805"
   version="1.1"
   inkscape:version="0.91 r13725"
   sodipodi:docname="MS20-1.0-8HP-Panel.svg">
  <defs
     id="defs8807">
    <linearGradient
       id="linearGradient5359"
       osb:paint="solid">
      <stop
         style="stop-color:#ff0000;stop-opacity:1;"
         offset="0"
         id="stop5361" />
    </linearGradient>
  </defs>
  <sodipodi:namedview
     id="base"
     pagecolor="#ffffff"
     bordercolor="#666666"
     borderopacity="1.0"
     inkscape:pageopacity="0.0"
     inkscape:pageshadow="2"
     inkscape:zoom="2.5053649"
     inkscape:cx="512.76503"
     inkscape:cy="316.19501"
     inkscape:document-units="px"
     inkscape:current-layer="layer3"
     showgrid="true"
     inkscape:snap-center="false"
     inkscape:snap-object-midpoints="true"
     inkscape:snap-to-guides="false"
     inkscape:snap-grids="true"
     inkscape:snap-midpoints="false"
     inkscape:window-width="2036"
     inkscape:window-height="1311"
     inkscape:window-x="329"
     inkscape:window-y="10"
     inkscape:window-maximized="0"
     inkscape:snap-nodes="true"
     inkscape:snap-bbox="false"
     inkscape:snap-bbox-midpoints="true"
     inkscape:snap-global="true"
     gridtolerance="4">
    <inkscape:grid
       type="xygrid"
       id="grid8813"
       empspacing="4"
       visible="true"
       enabled="true"
       snapvisiblegridlinesonly="false"
       units="in"
       spacingx="0.025in"
       spacingy="0.025in"
       color="#f700f9"
       opacity="0.1254902"
       dotted="true" />
  </sodipodi:namedview>
  <metadata
     id="metadata8810">
    <rdf:RDF>
      <cc:Work
         rdf:about="">
        <dc:format>image/svg+xml</dc:format>
        <dc:type
           rdf:resource="http://purl.org/dc/dcmitype/StillImage" />
        <dc:title />
      </cc:Work>
    </rdf:RDF>
  </metadata>
  <g
     inkscape:label="8HP panel"
     inkscape:groupmode="layer"
     id="layer1"
     style="display:inline">
    <g
       id="g4823">
      <rect
         style="fill:none;stroke:#0000ff;stroke-width:0.40926766;stroke-miterlimit:4;stroke-dasharray:none;stroke-opacity:1"
         id="rect3093"
         width="143.74339"
         height="456.60999"
         x="360.1283"
         y="507.86218" />
      <circle
         id="path3097"
         style="fill:none;stroke:#0000ff;stroke-width:0.35433072;stroke-miterlimit:4;stroke-dasharray:none;stroke-opacity:1"
         cx="387"
         cy="519.11218"
         r="5.625" />
      <circle
         style="fill:none;stroke:#0000ff;stroke-width:0.35433072;stroke-miterlimit:4;stroke-dasharray:none;stroke-opacity:1"
         id="path3099"
         cx="387"
         cy="953.36218"
         r="5.625" />
      <circle
         r="5.625"
         cy="519.11218"
         cx="477"
         style="fill:none;stroke:#0000ff;stroke-width:0.35433072;stroke-miterlimit:4;stroke-dasharray:none;stroke-opacity:1"
         id="circle5419" />
      <circle
         r="5.625"
         cy="953.36218"
         cx="477"
         id="circle5421"
         style="fill:none;stroke:#0000ff;stroke-width:0.35433072;stroke-miterlimit:4;stroke-dasharray:none;stroke-opacity:1" />
    </g>
    <path
       style="fill:none;fill-rule:evenodd;stroke:#000000;stroke-width:0.99983793px;stroke-linecap:butt;stroke-linejoin:miter;stroke-opacity:1"
       d="m 512.8001,519.25692 0,434.10928"
       id="path5597"
       inkscape:connector-curvature="0" />
    <path
       inkscape:connector-curvature="0"
       id="path4830"
       d="m 522,570.53443 0,356.15551"
       style="fill:none;fill-rule:evenodd;stroke:#000000;stroke-width:0.90562814px;stroke-linecap:butt;stroke-linejoin:miter;stroke-opacity:1" />
  </g>
  <g
     inkscape:groupmode="layer"
     id="layer3"
     inkscape:label="FP LASER HOLES"
     style="display:inline">
    <text
       xml:space="preserve"
       style="font-style:normal;font-variant:normal;font-weight:normal;font-stretch:normal;font-size:20px;line-height:125%;font-family:'Averia Sans';-inkscape-font-specification:'Averia Sans';letter-spacing:0px;word-spacing:0px;fill:#000000;fill-opacity:1;stroke:none"
       x="352.21191"
       y="792.32202"
       id="text9904"
       sodipodi:linespacing="125%"><tspan
         sodipodi:role="line"
         id="tspan9906"
         x="352.21191"
         y="792.32202" /></text>
    <ellipse
       ry="10.673117"
       rx="10.673118"
       cy="899.36218"
       cx="432"
       id="ellipse4420"
       style="display:inline;fill:none;stroke:#0000ff;stroke-width:0.35433072;stroke-miterlimit:4;stroke-dasharray:none;stroke-opacity:1" />
    <ellipse
       ry="12.247839"
       rx="12.24784"
       cy="836.36218"
       cx="387"
       id="ellipse4422"
       style="display:inline;fill:none;stroke:#0000ff;stroke-width:0.35433072;stroke-miterlimit:4;stroke-dasharray:none;stroke-opacity:1" />
    <ellipse
       style="display:inline;fill:none;stroke:#0000ff;stroke-width:0.35433072;stroke-miterlimit:4;stroke-dasharray:none;stroke-opacity:1"
       id="ellipse5434"
       cx="387"
       cy="899.36218"
       rx="10.673118"
       ry="10.673117" />
    <ellipse
       style="display:inline;fill:none;stroke:#0000ff;stroke-width:0.35433072;stroke-miterlimit:4;stroke-dasharray:none;stroke-opacity:1"
       id="ellipse5436"
       cx="459"
       cy="764.36218"
       rx="12.24784"
       ry="12.247839" />
    <ellipse
       ry="12.247839"
       rx="12.24784"
       cy="656.36218"
       cx="432"
       id="ellipse5438"
       style="display:inline;fill:none;stroke:#0000ff;stroke-width:0.35433072;stroke-miterlimit:4;stroke-dasharray:none;stroke-opacity:1" />
    <ellipse
       style="display:inline;fill:none;stroke:#0000ff;stroke-width:0.35433072;stroke-miterlimit:4;stroke-dasharray:none;stroke-opacity:1"
       id="ellipse5430"
       cx="477"
       cy="899.36218"
       rx="10.673118"
       ry="10.673117" />
    <ellipse
       ry="10.673117"
       rx="10.673118"
       cy="699.11218"
       cx="317.25"
       id="ellipse5432"
       style="display:inline;fill:none;stroke:#0000ff;stroke-width:0.35433072;stroke-miterlimit:4;stroke-dasharray:none;stroke-opacity:1" />
    <ellipse
       style="display:inline;fill:none;stroke:#0000ff;stroke-width:0.35433072;stroke-miterlimit:4;stroke-dasharray:none;stroke-opacity:1"
       id="ellipse5435"
       cx="333"
       cy="595.61218"
       rx="12.24784"
       ry="12.247839" />
    <circle
       cy="669.86218"
       cx="308.25"
       id="ellipse5441"
       style="display:inline;fill:none;stroke:#0000ff;stroke-width:0.35433072;stroke-miterlimit:4;stroke-dasharray:none;stroke-opacity:1"
       r="5.2094636" />
    <circle
       r="5.2094636"
       style="display:inline;fill:none;stroke:#0000ff;stroke-width:0.35433072;stroke-miterlimit:4;stroke-dasharray:none;stroke-opacity:1"
       id="circle4834"
       cx="490.5"
       cy="584.36218" />
    <circle
       cy="584.36218"
       cx="373.5"
       id="circle4836"
       style="display:inline;fill:none;stroke:#0000ff;stroke-width:0.35433072;stroke-miterlimit:4;stroke-dasharray:none;stroke-opacity:1"
       r="5.2094636" />
    <circle
       r="5.2094636"
       style="display:inline;fill:none;stroke:#0000ff;stroke-width:0.35433072;stroke-miterlimit:4;stroke-dasharray:none;stroke-opacity:1"
       id="circle4945"
       cx="373.5"
       cy="728.36218" />
    <ellipse
       style="display:inline;fill:none;stroke:#0000ff;stroke-width:0.35433072;stroke-miterlimit:4;stroke-dasharray:none;stroke-opacity:1"
       id="ellipse4949"
       cx="432"
       cy="836.36218"
       rx="12.24784"
       ry="12.247839" />
    <ellipse
       ry="10.673117"
       rx="10.673118"
       cy="836.36218"
       cx="477"
       id="ellipse4584"
       style="display:inline;fill:none;stroke:#0000ff;stroke-width:0.35433072;stroke-miterlimit:4;stroke-dasharray:none;stroke-opacity:1" />
  </g>
  <g
     inkscape:groupmode="layer"
     id="layer4"
     inkscape:label="Engravings"
     style="display:inline">
    <text
       xml:space="preserve"
       style="font-style:normal;font-variant:normal;font-weight:normal;font-stretch:normal;font-size:20px;line-height:125%;font-family:'Averia Sans';-inkscape-font-specification:'Averia Sans';letter-spacing:0px;word-spacing:0px;fill:#000000;fill-opacity:1;stroke:#ff0000;stroke-width:0.03543307;stroke-miterlimit:4;stroke-dasharray:none;stroke-opacity:1"
       x="345.08755"
       y="796.32947"
       id="text9913"
       sodipodi:linespacing="125%"><tspan
         sodipodi:role="line"
         id="tspan9915"
         x="345.08755"
         y="796.32947" /></text>
    <text
       xml:space="preserve"
       style="font-style:normal;font-variant:normal;font-weight:normal;font-stretch:normal;font-size:12px;line-height:125%;font-family:'C64 User';-inkscape-font-specification:'C64 User';letter-spacing:0px;word-spacing:0px;fill:#000000;fill-opacity:1;stroke:none"
       x="499.66638"
       y="626.3988"
       id="text3966"
       sodipodi:linespacing="125%"><tspan
         sodipodi:role="line"
         id="tspan3968"
         x="499.66638"
         y="626.3988" /></text>
    <path
       style="fill:none;stroke:#ff0000;stroke-width:0.41376916;stroke-miterlimit:4;stroke-dasharray:none;stroke-opacity:1"
       d="m 364.5,935.36218 135,0"
       id="path11004"
       inkscape:connector-curvature="0" />
    <path
       style="fill:none;stroke:#ff0000;stroke-width:0.35433072;stroke-miterlimit:4;stroke-dasharray:none;stroke-opacity:1"
       d="m 364.5,534.86218 22.5,0"
       id="path11006"
       inkscape:connector-curvature="0" />
    <text
       xml:space="preserve"
       style="font-style:normal;font-variant:normal;font-weight:normal;font-stretch:normal;font-size:15px;line-height:125%;font-family:sans-serif;-inkscape-font-specification:sans-serif;letter-spacing:0px;word-spacing:0px;fill:#000000;fill-opacity:1;stroke:none;stroke-width:1px;stroke-linecap:butt;stroke-linejoin:miter;stroke-opacity:1"
       x="371.78259"
       y="712.60486"
       id="text4491"
       sodipodi:linespacing="125%"><tspan
         sodipodi:role="line"
         id="tspan4493"
         x="371.78259"
         y="712.60486" /></text>
    <text
       xml:space="preserve"
       style="font-style:normal;font-variant:normal;font-weight:normal;font-stretch:normal;font-size:15px;line-height:125%;font-family:sans-serif;-inkscape-font-specification:sans-serif;letter-spacing:0px;word-spacing:0px;fill:#000000;fill-opacity:1;stroke:none;stroke-width:1px;stroke-linecap:butt;stroke-linejoin:miter;stroke-opacity:1"
       x="376.28259"
       y="730.60486"
       id="text4568"
       sodipodi:linespacing="125%"><tspan
         sodipodi:role="line"
         id="tspan4570"
         x="376.28259"
         y="730.60486" /></text>
    <text
       xml:space="preserve"
       style="font-style:normal;font-weight:normal;font-size:15px;line-height:125%;font-family:sans-serif;letter-spacing:0px;word-spacing:0px;fill:#000000;fill-opacity:1;stroke:none;stroke-width:1px;stroke-linecap:butt;stroke-linejoin:miter;stroke-opacity:1"
       x="267.75"
       y="660.86218"
       id="text5450"
       sodipodi:linespacing="125%"><tspan
         sodipodi:role="line"
         id="tspan5452"
         x="267.75"
         y="660.86218" /></text>
    <text
       xml:space="preserve"
       style="font-style:normal;font-variant:normal;font-weight:normal;font-stretch:normal;font-size:20px;line-height:125%;font-family:'My Underwood';-inkscape-font-specification:'My Underwood';letter-spacing:0px;word-spacing:0px;fill:#000000;fill-opacity:1;stroke:none;stroke-width:1px;stroke-linecap:butt;stroke-linejoin:miter;stroke-opacity:1"
       x="535.64642"
       y="610.21472"
       id="text5487"
       sodipodi:linespacing="125%"><tspan
         sodipodi:role="line"
         id="tspan5489"
         x="535.64642"
         y="610.21472">My Underwood 16pt</tspan></text>
    <text
       sodipodi:linespacing="125%"
       id="text5491"
       y="632.54181"
       x="535.61432"
       style="font-style:normal;font-variant:normal;font-weight:normal;font-stretch:normal;font-size:15px;line-height:125%;font-family:'My Underwood';-inkscape-font-specification:'My Underwood';letter-spacing:0px;word-spacing:0px;fill:#000000;fill-opacity:1;stroke:none;stroke-width:1px;stroke-linecap:butt;stroke-linejoin:miter;stroke-opacity:1"
       xml:space="preserve"><tspan
         y="632.54181"
         x="535.61432"
         id="tspan5493"
         sodipodi:role="line">My Underwood 12pt</tspan></text>
    <text
       xml:space="preserve"
       style="font-style:normal;font-variant:normal;font-weight:normal;font-stretch:normal;font-size:12.5px;line-height:125%;font-family:'My Underwood';-inkscape-font-specification:'My Underwood';letter-spacing:0px;word-spacing:0px;fill:#000000;fill-opacity:1;stroke:none;stroke-width:1px;stroke-linecap:butt;stroke-linejoin:miter;stroke-opacity:1"
       x="536.03326"
       y="654.28784"
       id="text5495"
       sodipodi:linespacing="125%"><tspan
         sodipodi:role="line"
         id="tspan5497"
         x="536.03326"
         y="654.28784">My Underwood 10pt</tspan></text>
    <path
       style="fill:none;fill-rule:evenodd;stroke:#ff0000;stroke-width:0.35433072;stroke-linecap:butt;stroke-linejoin:miter;stroke-miterlimit:4;stroke-dasharray:none;stroke-opacity:1"
       d="m 572.63435,791.32257 0,9 2.25,4.5"
       id="path5515"
       inkscape:connector-curvature="0" />
    <path
       style="fill:none;fill-rule:evenodd;stroke:#ff0000;stroke-width:0.35433072;stroke-linecap:butt;stroke-linejoin:miter;stroke-miterlimit:4;stroke-dasharray:none;stroke-opacity:1"
       d="m 570.42975,793.5236 0,9 -2.25,4.5 0,0 0,0"
       id="path5519"
       inkscape:connector-curvature="0" />
    <path
       style="fill:none;fill-rule:evenodd;stroke:#ff0000;stroke-width:0.35433072;stroke-linecap:butt;stroke-linejoin:miter;stroke-miterlimit:4;stroke-dasharray:none;stroke-opacity:1"
       d="m 560.88324,798.11218 12.23352,0"
       id="path5521"
       inkscape:connector-curvature="0" />
    <path
       inkscape:connector-curvature="0"
       id="path5539"
       d="m 477,534.86218 22.5,0"
       style="fill:none;stroke:#ff0000;stroke-width:0.35433072;stroke-miterlimit:4;stroke-dasharray:none;stroke-opacity:1" />
    <g
       style="font-style:normal;font-variant:normal;font-weight:normal;font-stretch:normal;font-size:12.5px;line-height:125%;font-family:'My Underwood';-inkscape-font-specification:'My Underwood';letter-spacing:0px;word-spacing:0px;fill:#000000;fill-opacity:1;stroke:none;stroke-width:1px;stroke-linecap:butt;stroke-linejoin:miter;stroke-opacity:1"
       id="text4844"
       transform="translate(-116.10689,-39.634816)">
      <path
         d="m 417.48502,917.39203 2.58789,0 0,0.8728 -1.46485,0 0,9.39942 1.46485,0 0,0.8728 -2.58789,0 0,-11.14502 z"
         id="path4363"
         inkscape:connector-curvature="0" />
      <path
         d="m 426.83111,920.4391 q 0.0375,0.3625 0.0875,0.7375 0.05,0.3625 0.075,0.725 0.0375,0.35 0.025,0.675 0,0.3125 -0.075,0.5625 -0.0875,-0.1 -0.2875,-0.225 -0.2,-0.125 -0.375,-0.125 0.3125,0.2125 0.55,0.575 0.2375,0.3625 0.35,0.8 0.1125,0.4375 0.0875,0.9 -0.025,0.4625 -0.2375,0.8625 -0.2,0.1625 -0.4125,0.25 -0.2125,0.075 -0.4,0.1625 -0.1875,0.075 -0.35,0.2 -0.15,0.125 -0.225,0.3625 -0.4875,-0.0875 -1.0125,-0.225 -0.5125,-0.1375 -1.025,-0.2375 -0.5,-0.1 -0.975,-0.1125 -0.475,-0.025 -0.875,0.1375 -0.1625,-0.1375 -0.175,-0.2625 -0.0125,-0.125 0.0375,-0.2375 0.0625,-0.125 0.1375,-0.225 0.075,-0.1125 0.0875,-0.2125 0.025,-0.1 -0.0625,-0.1875 -0.075,-0.0875 -0.35,-0.1625 l 0.225,0 0.1,-0.875 q 0.2625,-0.075 0.4625,0.025 0.2,0.0875 0.3625,0.275 0.1625,0.1875 0.3,0.4125 0.1375,0.225 0.3,0.4125 0.1625,0.175 0.3625,0.275 0.2,0.1 0.4625,0.0125 0.2875,0.125 0.5125,0.1 0.225,-0.025 0.425,-0.1 0.2125,-0.0875 0.425,-0.1875 0.2125,-0.1 0.4875,-0.1375 -0.05,-0.125 0,-0.225 0.05,-0.1 0.1375,-0.175 0.1,-0.0875 0.2,-0.15 0.1125,-0.0625 0.1875,-0.1 -0.15,-0.3625 -0.4,-0.5375 -0.25,-0.1875 -0.55,-0.275 -0.2875,-0.0875 -0.6,-0.125 -0.3125,-0.05 -0.5875,-0.1375 -0.2,0.125 -0.45,0.075 -0.2375,-0.0625 -0.4875,-0.175 -0.25,-0.125 -0.5125,-0.25 -0.2625,-0.1375 -0.5,-0.175 -0.325,-0.25 -0.4,-0.55 -0.0625,-0.3 0,-0.6125 0.0625,-0.3125 0.1875,-0.625 0.1375,-0.3125 0.2125,-0.6 0.35,-0.2625 0.7,-0.3625 0.35,-0.1125 0.7,-0.125 0.35,-0.0125 0.7125,0.05 0.3625,0.05 0.75,0.1125 0.3875,0.05 0.8,0.075 0.4125,0.0125 0.875,-0.0625 z m -2.5,0.8375 q -0.2,0.0375 -0.45,0.1125 -0.2375,0.075 -0.45,0.2 -0.2125,0.125 -0.3625,0.325 -0.1375,0.1875 -0.1375,0.4625 0.25,0.0375 0.6625,0.1625 0.4125,0.1125 0.825,0.2 0.425,0.0875 0.7875,0.1125 0.375,0.0125 0.525,-0.1625 0.075,-0.3 0.025,-0.475 -0.0375,-0.1875 -0.175,-0.2875 -0.125,-0.1125 -0.3125,-0.175 -0.175,-0.0625 -0.3625,-0.1125 -0.175,-0.0625 -0.3375,-0.1375 -0.15,-0.0875 -0.2375,-0.225 z"
         id="path4365"
         inkscape:connector-curvature="0" />
      <path
         d="m 433.08052,921.6516 q 0,0.9875 -0.0625,1.8625 -0.0625,0.875 -0.1125,1.7 -0.05,0.825 -0.0625,1.6375 0,0.8 0.125,1.6625 0.1125,0.0875 0.1625,0.2125 0.0625,0.1375 0.125,0.25 0.0625,0.1125 0.1625,0.175 0.1,0.075 0.3125,0.0375 l 0.2125,-0.225 q 0.05,0.0875 0.125,0.15 0.075,0.075 0.125,0.1375 0.0625,0.075 0.0875,0.1625 0.0375,0.0875 -0.0125,0.2125 -0.4125,0.2375 -0.875,0.25 -0.45,0.025 -0.9,-0.0375 -0.45,-0.0625 -0.8625,-0.1375 -0.4125,-0.0625 -0.75,0.0125 -0.1375,-0.275 -0.125,-0.4 0.0125,-0.1125 0.1,-0.15 0.0875,-0.0375 0.225,-0.0375 0.15,0 0.2875,-0.05 0.15,-0.0375 0.2625,-0.1625 0.1125,-0.125 0.1375,-0.4 l 0.425,0.225 q 0.075,-0.2 0.0875,-0.4625 0.0125,-0.25 0,-0.5 0,-0.25 -0.0125,-0.4875 0,-0.225 0.0375,-0.4 -0.4125,0.2 -0.875,0.3875 -0.45,0.2 -0.9,0.2625 -0.45,0.075 -0.8625,-0.0625 -0.4125,-0.1375 -0.725,-0.5875 -0.45,-0.5375 -0.7,-1.15 -0.25,-0.625 -0.3125,-1.275 -0.05,-0.65 0.0875,-1.3125 0.15,-0.6625 0.475,-1.275 0.4875,-0.375 1.0875,-0.5625 0.6125,-0.1875 1.2375,-0.2 0.6375,-0.025 1.225,0.1125 0.5875,0.1375 1.0375,0.425 z m -3.2875,0.875 q -0.25,0.25 -0.4625,0.55 -0.2125,0.3 -0.3375,0.65 -0.1125,0.35 -0.125,0.7375 -0.0125,0.375 0.1625,0.7875 0.25,0.25 0.5125,0.525 0.275,0.275 0.5625,0.475 0.2875,0.1875 0.5875,0.25 0.3125,0.05 0.6375,-0.15 l 0,-0.5625 q 0.35,-0.05 0.5125,-0.1875 0.1625,-0.15 0.2,-0.3625 0.05,-0.2125 0.0125,-0.475 -0.0375,-0.2625 -0.0875,-0.5375 -0.0375,-0.2875 -0.0625,-0.575 -0.0125,-0.3 0.075,-0.575 -0.2,-0.25 -0.475,-0.4375 -0.275,-0.2 -0.575,-0.2875 -0.3,-0.0875 -0.6,-0.05 -0.2875,0.025 -0.5375,0.225 z"
         id="path4367"
         inkscape:connector-curvature="0" />
      <path
         d="m 435.24693,921.1766 q 0,-0.35 0.1625,-0.55 0.175,-0.2125 0.4375,-0.2875 0.275,-0.0875 0.6,-0.0625 0.3375,0.025 0.6625,0.1375 0.325,0.1 0.6,0.275 0.275,0.175 0.4375,0.3875 0.975,-0.725 1.825,-0.675 0.85,0.05 1.7375,0.775 0.1625,0.2125 0.175,0.425 0.025,0.2 0,0.425 -0.0125,0.225 -0.025,0.475 -0.0125,0.2375 0.075,0.5125 -0.25,0.05 -0.4875,0.1 -0.2375,0.0375 -0.4625,0.0375 -0.225,-0.0125 -0.425,-0.1125 -0.1875,-0.1 -0.35,-0.35 l -0.4375,-0.85 q -0.575,0.075 -1.0625,0.45 -0.4875,0.375 -0.6625,0.95 0.0375,0.25 0,0.575 -0.0375,0.325 -0.05,0.6875 -0.0125,0.3625 0.0625,0.7375 0.075,0.3625 0.325,0.6875 0.1625,0 0.4125,0.0125 0.2625,0.0125 0.5125,0.075 0.25,0.05 0.4375,0.1875 0.2,0.1375 0.2375,0.375 -0.1125,0.2875 -0.35,0.3375 -0.225,0.0625 -0.4875,0.05 -0.2625,-0.0125 -0.5375,-0.0125 -0.2625,0 -0.4625,0.1625 -0.325,-0.125 -0.7,-0.1375 -0.375,0 -0.775,0 -0.3875,0 -0.7875,-0.05 -0.3875,-0.0375 -0.7375,-0.25 -0.125,-0.1125 -0.075,-0.25 0.0625,-0.1375 0.1875,-0.25 0.1375,-0.125 0.2875,-0.225 0.1625,-0.1 0.2375,-0.1375 0.2,0.1625 0.2875,0.125 0.0875,-0.05 0.15,-0.15 0.075,-0.1 0.175,-0.175 0.1125,-0.0875 0.3625,-0.0125 0.1625,-0.4875 0.2125,-0.975 0.05,-0.4875 0.0375,-0.9625 -0.0125,-0.4875 -0.0625,-0.9625 -0.0375,-0.4875 -0.075,-0.9625 -0.1125,-0.1125 -0.275,-0.125 -0.15,-0.025 -0.325,0 -0.1625,0.0125 -0.3375,0.0375 -0.175,0.025 -0.325,0 -0.1375,-0.025 -0.2375,-0.125 -0.1,-0.1 -0.125,-0.35 z"
         id="path4369"
         inkscape:connector-curvature="0" />
      <path
         d="m 446.14102,917.39203 0,11.14502 -2.58789,0 0,-0.8728 1.45874,0 0,-9.39942 -1.45874,0 0,-0.8728 2.58789,0 z"
         id="path4371"
         inkscape:connector-curvature="0" />
    </g>
    <g
       style="font-style:normal;font-variant:normal;font-weight:normal;font-stretch:normal;font-size:12.5px;line-height:125%;font-family:'My Underwood';-inkscape-font-specification:'My Underwood';letter-spacing:0px;word-spacing:0px;fill:#000000;fill-opacity:1;stroke:none;stroke-width:1px;stroke-linecap:butt;stroke-linejoin:miter;stroke-opacity:1"
       id="text4848"
       transform="translate(-162.78364,-14.94697)">
      <path
         d="m 463.87711,917.00861 2.58789,0 0,0.8728 -1.46485,0 0,9.39941 1.46485,0 0,0.87281 -2.58789,0 0,-11.14502 z"
         id="path4352"
         inkscape:connector-curvature="0" />
      <path
         d="m 470.1857,917.89318 q 0.075,0.3625 0.15,0.7625 0.075,0.3875 0.225,0.7125 0.15,0.325 0.4125,0.525 0.2625,0.2 0.7125,0.1625 0.325,-0.175 0.6875,-0.125 0.375,0.0375 0.6125,0.4375 0,0.125 -0.075,0.225 -0.0625,0.1 -0.175,0.1875 -0.1,0.0875 -0.2125,0.175 -0.1,0.075 -0.175,0.1625 -0.1375,-0.1625 -0.3625,-0.2125 -0.225,-0.05 -0.4875,-0.025 -0.2625,0.0125 -0.5375,0.0875 -0.2625,0.0625 -0.475,0.15 0,0.4875 -0.0875,0.9875 -0.0875,0.5 -0.1375,0.9875 -0.05,0.4875 0,0.95 0.05,0.45 0.3375,0.8625 0.2,0.1625 0.4,0.2125 0.2125,0.0375 0.4,0.0125 0.2,-0.0375 0.375,-0.125 0.175,-0.1 0.3375,-0.2125 0.25,-0.2375 0.325,-0.5 0.0875,-0.275 0.175,-0.5125 0.0875,-0.25 0.2375,-0.4375 0.1625,-0.2 0.5625,-0.275 0.1625,0.3625 0.2,0.625 0.0375,0.2625 0.025,0.5125 0,0.2375 -0.025,0.5 -0.025,0.2625 0.025,0.625 -0.2,0.2 -0.5375,0.45 -0.325,0.2375 -0.7125,0.425 -0.375,0.1875 -0.7875,0.2875 -0.4125,0.1 -0.7625,0.025 -0.325,-0.1625 -0.6375,-0.3875 -0.3125,-0.225 -0.55,-0.5 -0.225,-0.2875 -0.35,-0.625 -0.125,-0.35 -0.075,-0.75 -0.0625,-0.275 -0.0375,-0.6 0.025,-0.3375 0.0625,-0.675 0.05,-0.35 0.0625,-0.6875 0.025,-0.3375 -0.0375,-0.6125 -0.0625,-0.2875 -0.25,-0.4875 -0.1875,-0.2125 -0.5625,-0.3 -0.1625,0.0875 -0.3125,0.1125 -0.15,0.025 -0.225,0.1125 l -0.1,-0.975 q 0.475,0.1875 0.75,0.1125 0.2875,-0.0875 0.45,-0.3125 0.1625,-0.2375 0.25,-0.5625 0.0875,-0.325 0.1875,-0.6375 0.1125,-0.3125 0.2625,-0.55 0.1625,-0.25 0.4625,-0.3 z"
         id="path4354"
         inkscape:connector-curvature="0" />
      <path
         d="m 474.53453,920.79318 q 0,-0.35 0.1625,-0.55 0.175,-0.2125 0.4375,-0.2875 0.275,-0.0875 0.6,-0.0625 0.3375,0.025 0.6625,0.1375 0.325,0.1 0.6,0.275 0.275,0.175 0.4375,0.3875 0.975,-0.725 1.825,-0.675 0.85,0.05 1.7375,0.775 0.1625,0.2125 0.175,0.425 0.025,0.2 0,0.425 -0.0125,0.225 -0.025,0.475 -0.0125,0.2375 0.075,0.5125 -0.25,0.05 -0.4875,0.1 -0.2375,0.0375 -0.4625,0.0375 -0.225,-0.0125 -0.425,-0.1125 -0.1875,-0.1 -0.35,-0.35 l -0.4375,-0.85 q -0.575,0.075 -1.0625,0.45 -0.4875,0.375 -0.6625,0.95 0.0375,0.25 0,0.575 -0.0375,0.325 -0.05,0.6875 -0.0125,0.3625 0.0625,0.7375 0.075,0.3625 0.325,0.6875 0.1625,0 0.4125,0.0125 0.2625,0.0125 0.5125,0.075 0.25,0.05 0.4375,0.1875 0.2,0.1375 0.2375,0.375 -0.1125,0.2875 -0.35,0.3375 -0.225,0.0625 -0.4875,0.05 -0.2625,-0.0125 -0.5375,-0.0125 -0.2625,0 -0.4625,0.1625 -0.325,-0.125 -0.7,-0.1375 -0.375,0 -0.775,0 -0.3875,0 -0.7875,-0.05 -0.3875,-0.0375 -0.7375,-0.25 -0.125,-0.1125 -0.075,-0.25 0.0625,-0.1375 0.1875,-0.25 0.1375,-0.125 0.2875,-0.225 0.1625,-0.1 0.2375,-0.1375 0.2,0.1625 0.2875,0.125 0.0875,-0.05 0.15,-0.15 0.075,-0.1 0.175,-0.175 0.1125,-0.0875 0.3625,-0.0125 0.1625,-0.4875 0.2125,-0.975 0.05,-0.4875 0.0375,-0.9625 -0.0125,-0.4875 -0.0625,-0.9625 -0.0375,-0.4875 -0.075,-0.9625 -0.1125,-0.1125 -0.275,-0.125 -0.15,-0.025 -0.325,0 -0.1625,0.0125 -0.3375,0.0375 -0.175,0.025 -0.325,0 -0.1375,-0.025 -0.2375,-0.125 -0.1,-0.1 -0.125,-0.35 z"
         id="path4356"
         inkscape:connector-curvature="0" />
      <path
         d="m 483.81363,918.49318 q 0.125,-0.0375 0.35,-0.1 0.2375,-0.0625 0.4625,-0.05 0.225,0.0125 0.375,0.1375 0.1625,0.125 0.125,0.45 0.0375,0.1125 0,0.25 -0.0375,0.125 -0.125,0.25 -0.0875,0.125 -0.2,0.225 -0.1125,0.1 -0.2375,0.1375 -0.2125,-0.0875 -0.425,-0.2125 -0.2125,-0.125 -0.3625,-0.2875 -0.1375,-0.1625 -0.15,-0.3625 -0.0125,-0.2 0.1875,-0.4375 z m -0.7625,1.725 q 0.1375,0.1125 0.3375,0.125 0.2,0 0.4125,-0.025 0.225,-0.025 0.45,-0.05 0.225,-0.025 0.4,0.025 0.1875,0.05 0.3125,0.2 0.125,0.15 0.1625,0.4625 -0.05,0.6 -0.0375,1.15 0.0125,0.5375 0.075,1.075 0.0625,0.525 0.15,1.0625 0.1,0.5375 0.225,1.1375 0.1625,0.1625 0.45,0.1875 0.3,0.025 0.575,0.0625 0.2875,0.0375 0.4875,0.1875 0.2125,0.1375 0.2125,0.5375 -0.65,0.0875 -1.2875,0.1875 -0.625,0.1 -1.2625,0.15 -0.6375,0.05 -1.2875,0.0125 -0.65,-0.0375 -1.3375,-0.2375 -0.125,-0.125 -0.1375,-0.2625 0,-0.1375 0.05,-0.2625 0.0625,-0.1375 0.175,-0.25 0.1125,-0.125 0.2375,-0.2 0.4,0.325 0.8,0.2125 0.4125,-0.125 0.8,-0.525 0.175,-0.975 0.1625,-1.875 0,-0.9125 -0.25,-1.8 l -1.8375,-0.325 q -0.125,-0.3625 -0.05,-0.5 0.075,-0.1375 0.25,-0.1875 0.175,-0.05 0.3875,-0.075 0.2125,-0.0375 0.375,-0.2 z"
         id="path4358"
         inkscape:connector-curvature="0" />
      <path
         d="m 491.38565,917.00861 0,11.14502 -2.58789,0 0,-0.87281 1.45874,0 0,-9.39941 -1.45874,0 0,-0.8728 2.58789,0 z"
         id="path4360"
         inkscape:connector-curvature="0" />
    </g>
    <g
       style="font-style:normal;font-variant:normal;font-weight:normal;font-stretch:normal;font-size:12.5px;line-height:125%;font-family:'My Underwood';-inkscape-font-specification:'My Underwood';letter-spacing:0px;word-spacing:0px;fill:#000000;fill-opacity:1;stroke:none;stroke-width:1px;stroke-linecap:butt;stroke-linejoin:miter;stroke-opacity:1"
       id="text4852"
       transform="translate(-62.38948,-42.248974)">
      <path
         d="m 376.67347,918.28074 q 0.725,-0.1625 1.35,0.0125 0.6375,0.1625 1.125,0.4 0.05,0.25 0.15,0.475 0.1,0.225 0.1625,0.45 0.075,0.2125 0.075,0.45 0,0.225 -0.1625,0.4625 -0.125,0.25 -0.2875,0.275 -0.1625,0.025 -0.3375,-0.025 -0.1625,-0.0625 -0.3375,-0.15 -0.175,-0.1 -0.3375,-0.1 -0.1625,-0.1625 -0.175,-0.3 -0.0125,-0.15 0.0375,-0.275 0.05,-0.1375 0.125,-0.2625 0.0875,-0.125 0.1,-0.2375 0.025,-0.1125 -0.0625,-0.2125 -0.075,-0.1125 -0.3375,-0.2125 l -1.2,0.3125 q 0.0375,0.125 0.075,0.3375 0.0375,0.2 0.1,0.425 0.075,0.2125 0.2,0.425 0.1375,0.2 0.375,0.3125 -0.1625,0.175 -0.3125,0.2125 -0.1375,0.0375 -0.275,0.0375 -0.1375,0 -0.2875,0 -0.1375,0 -0.3,0.0875 -0.125,0.6 -0.1875,1.075 -0.0625,0.475 -0.0625,0.925 0,0.4375 0.0625,0.9125 0.0625,0.475 0.1875,1.0875 0.2375,0.15 0.55,0.2125 0.325,0.05 0.6,0.1375 0.2875,0.075 0.475,0.25 0.2,0.175 0.2,0.575 -0.525,0.1625 -1.1,0.2375 -0.575,0.0875 -1.175,0.0875 -0.5875,0 -1.1875,-0.0875 -0.6,-0.075 -1.1625,-0.2375 l 0.325,-0.8625 q 0.1125,0.0375 0.225,0.1125 0.125,0.0625 0.25,0.1 0.125,0.0375 0.2375,0.025 0.125,-0.0125 0.2375,-0.1375 0.375,-0.3625 0.45,-0.8125 0.0875,-0.45 0.0375,-0.9625 -0.05,-0.5125 -0.15,-1.0625 -0.1,-0.5625 -0.1,-1.125 -0.1,-0.1375 -0.2875,-0.2 -0.175,-0.0625 -0.3625,-0.0875 -0.1875,-0.0375 -0.375,-0.075 -0.1875,-0.0375 -0.3125,-0.1125 -0.1125,-0.0875 -0.15,-0.25 -0.0375,-0.175 0.075,-0.475 0.0875,-0.075 0.225,-0.1875 0.1375,-0.1125 0.3125,-0.025 0.0875,0.1125 0.2375,0.125 0.15,0.0125 0.325,-0.05 0.175,-0.075 0.3375,-0.2 0.175,-0.1375 0.2875,-0.3 0.075,-0.25 0.2,-0.5125 0.125,-0.275 0.3125,-0.4875 0.1875,-0.225 0.425,-0.3625 0.25,-0.15 0.575,-0.15 z"
         id="path4374"
         inkscape:connector-curvature="0" />
      <path
         d="m 381.43792,923.89324 q 0.3375,-0.0375 0.6375,0.05 0.3,0.0875 0.525,0.275 0.2375,0.1875 0.3875,0.45 0.1625,0.25 0.2,0.525 0,0.4125 -0.3,0.775 -0.2875,0.35 -0.6875,0.5125 -0.325,0.175 -0.6375,0.1375 -0.3,-0.025 -0.575,-0.175 -0.275,-0.1625 -0.4875,-0.425 -0.2125,-0.275 -0.325,-0.5875 -0.175,-0.2875 -0.0625,-0.5 0.125,-0.2125 0.3625,-0.3875 0.25,-0.175 0.525,-0.325 0.2875,-0.15 0.4375,-0.325 z"
         id="path4376"
         inkscape:connector-curvature="0" />
      <path
         d="m 384.53577,920.84324 q 0.3,-0.35 0.7,-0.55 0.4125,-0.2 0.85,-0.25 0.45,-0.0625 0.9,0.025 0.45,0.0875 0.8375,0.3 0.4,0.2125 0.7,0.5625 0.3,0.3375 0.4375,0.8 0.0375,0.2375 0,0.4875 -0.0375,0.25 -0.1625,0.4625 -0.125,0.2 -0.3375,0.3375 -0.2,0.125 -0.475,0.125 -0.375,-0.025 -0.55,-0.225 -0.1625,-0.2125 -0.225,-0.4875 -0.0625,-0.275 -0.1,-0.5625 -0.025,-0.3 -0.125,-0.525 -0.1,-0.225 -0.3375,-0.3125 -0.2375,-0.1 -0.725,0.0375 -0.3625,0.2125 -0.6625,0.55 -0.3,0.3375 -0.5,0.7625 -0.1875,0.425 -0.2375,0.9125 -0.0375,0.4875 0.125,1.0125 0.325,0.575 0.7875,0.85 0.475,0.275 1.0375,0.4375 0.325,0 0.625,-0.1625 0.3,-0.1625 0.5625,-0.4125 0.2625,-0.25 0.475,-0.55 0.225,-0.3 0.3875,-0.5875 0.325,0.075 0.4125,0.3125 0.0875,0.225 0.0625,0.5 -0.0125,0.275 -0.0875,0.5375 -0.0625,0.25 -0.0625,0.3625 -0.25,0.2875 -0.5625,0.525 -0.3125,0.2375 -0.675,0.3875 -0.3625,0.15 -0.7625,0.2 -0.4,0.0625 -0.8,-0.025 -0.525,-0.0375 -0.8375,-0.2875 -0.3125,-0.25 -0.5375,-0.5875 -0.225,-0.35 -0.425,-0.725 -0.1875,-0.375 -0.4625,-0.6625 0,-0.4125 -0.0375,-0.9 -0.025,-0.5 0.0125,-1 0.0375,-0.5 0.2,-0.9375 0.175,-0.4375 0.575,-0.7375 z"
         id="path4378"
         inkscape:connector-curvature="0" />
      <path
         d="m 394.75823,920.31824 q 0.2,0.125 0.475,0.1125 0.2875,-0.025 0.5625,-0.025 0.2875,0 0.525,0.1 0.25,0.1 0.375,0.4625 -0.625,0.2125 -0.9875,0.6 -0.35,0.375 -0.5625,0.8625 -0.2125,0.475 -0.325,1.0375 -0.1125,0.5625 -0.25,1.15 -0.125,0.575 -0.325,1.1375 -0.2,0.55 -0.575,1.0375 -0.325,0.1625 -0.55,0.1375 -0.225,-0.0125 -0.3875,-0.15 -0.15,-0.1375 -0.25,-0.3625 -0.1,-0.225 -0.1875,-0.475 -0.075,-0.25 -0.1625,-0.4875 -0.075,-0.2375 -0.175,-0.4 -0.1875,-0.2875 -0.3,-0.675 -0.1125,-0.3875 -0.2125,-0.8 -0.0875,-0.4125 -0.2,-0.8 -0.1125,-0.4 -0.3125,-0.725 -0.2,-0.325 -0.525,-0.525 -0.325,-0.2125 -0.825,-0.25 l 0,-0.625 q 0.3625,-0.0875 0.9,-0.2125 0.5375,-0.125 1.075,-0.125 0.5375,-0.0125 0.975,0.2 0.4375,0.2 0.5875,0.7625 -0.15,0 -0.2625,0.0875 -0.1,0.0875 -0.1875,0.2125 -0.0875,0.125 -0.1625,0.2625 -0.0625,0.125 -0.1375,0.2125 0.0875,0.1 0.1375,0.275 0.05,0.175 0.1,0.3625 0.05,0.175 0.1125,0.3375 0.0625,0.1625 0.1625,0.25 0.1125,0.075 0.2625,0.05 0.1625,-0.025 0.4125,-0.2125 0.2125,-0.2375 0.2125,-0.55 0,-0.325 -0.075,-0.6625 -0.075,-0.3375 -0.15,-0.65 -0.075,-0.325 -0.0125,-0.55 0.0625,-0.2375 0.325,-0.35 0.275,-0.1125 0.9,-0.0375 z"
         id="path4380"
         inkscape:connector-curvature="0" />
    </g>
    <path
       style="fill:none;fill-rule:evenodd;stroke:#ff0000;stroke-width:0.35433072;stroke-linecap:butt;stroke-linejoin:miter;stroke-miterlimit:4;stroke-dasharray:none;stroke-opacity:1"
       d="m 569.27595,836.36218 4.5,4.5 9,-9 9,9 4.5,-4.5 0,0 0,0"
       id="path4927"
       inkscape:connector-curvature="0" />
    <path
       style="fill:none;fill-rule:evenodd;stroke:#ff0000;stroke-width:0.35433072;stroke-linecap:butt;stroke-linejoin:miter;stroke-miterlimit:4;stroke-dasharray:none;stroke-opacity:1"
       d="m 537.75,825.11218 4.5,0 0,-9 4.5,0 0,9 4.5,0 0,-9 4.5,0 0,9 4.5,0 0,-9 4.5,0"
       id="path4933"
       inkscape:connector-curvature="0" />
    <path
       style="fill:none;fill-rule:evenodd;stroke:#ff0000;stroke-width:0.35433072;stroke-linecap:butt;stroke-linejoin:miter;stroke-miterlimit:4;stroke-dasharray:none;stroke-opacity:1"
       d="m 609.75,825.0236 0,4.5 -22.5,22.5 0,40.5 0,0 0,0 0,0"
       id="path4937"
       inkscape:connector-curvature="0" />
    <path
       style="fill:none;fill-rule:evenodd;stroke:#ff0000;stroke-width:0.35433072;stroke-linecap:butt;stroke-linejoin:miter;stroke-miterlimit:4;stroke-dasharray:none;stroke-opacity:1"
       d="m 596.25,865.61218 9,0"
       id="path4939"
       inkscape:connector-curvature="0" />
    <path
       inkscape:connector-curvature="0"
       id="path4943"
       d="m 542.25,834.11218 4.5,4.5 0,-9 9,9 0,-9 9,9 0,-9 4.5,4.5"
       style="fill:none;fill-rule:evenodd;stroke:#ff0000;stroke-width:0.35433072;stroke-linecap:butt;stroke-linejoin:miter;stroke-miterlimit:4;stroke-dasharray:none;stroke-opacity:1" />
    <path
       inkscape:connector-curvature="0"
       id="path4951"
       d="m 576,773.36218 -4.5,4.5 0,-9 -9,9 0,-9 -9,9 0,-9 -4.5,4.5"
       style="fill:none;fill-rule:evenodd;stroke:#ff0000;stroke-width:0.35433072;stroke-linecap:butt;stroke-linejoin:miter;stroke-miterlimit:4;stroke-dasharray:none;stroke-opacity:1" />
    <path
       style="fill:none;fill-opacity:1;stroke:#ff0000;stroke-width:0.47244096;stroke-miterlimit:4;stroke-dasharray:none;stroke-opacity:1"
       id="path4345"
       sodipodi:type="arc"
       sodipodi:cx="432"
       sodipodi:cy="836.36218"
       sodipodi:rx="18"
       sodipodi:ry="18"
       sodipodi:start="2.3561945"
       sodipodi:end="0.78539816"
       d="m 419.27208,849.0901 a 18,18 0 0 1 0,-25.45584 18,18 0 0 1 25.45584,0 18,18 0 0 1 0,25.45584"
       sodipodi:open="true" />
    <path
       sodipodi:open="true"
       d="m 374.27208,849.0901 a 18,18 0 0 1 0,-25.45584 18,18 0 0 1 25.45584,0 18,18 0 0 1 0,25.45584"
       sodipodi:end="0.78539816"
       sodipodi:start="2.3561945"
       sodipodi:ry="18"
       sodipodi:rx="18"
       sodipodi:cy="836.36218"
       sodipodi:cx="387"
       sodipodi:type="arc"
       id="path4347"
       style="fill:none;fill-opacity:1;stroke:#ff0000;stroke-width:0.47244096;stroke-miterlimit:4;stroke-dasharray:none;stroke-opacity:1" />
    <g
       id="g4469"
       transform="matrix(0.20000006,0,0,0.20000006,392.39999,779.7897)"
       style="stroke:#ff0000;stroke-width:1.77165306;stroke-miterlimit:4;stroke-dasharray:none;stroke-opacity:1">
      <path
         inkscape:connector-curvature="0"
         id="path4463"
         d="m 153,800.36218 0,90 54,0 0,-9 -45,0 0,-81 z"
         style="fill:none;fill-rule:evenodd;stroke:#ff0000;stroke-width:1.77165306;stroke-linecap:butt;stroke-linejoin:miter;stroke-miterlimit:4;stroke-dasharray:none;stroke-opacity:1" />
      <path
         inkscape:connector-curvature="0"
         id="path4465"
         d="m 171,800.36218 0,9 45,0 0,81 9,0 0,-90 z"
         style="fill:none;fill-rule:evenodd;stroke:#ff0000;stroke-width:1.77165306;stroke-linecap:butt;stroke-linejoin:miter;stroke-miterlimit:4;stroke-dasharray:none;stroke-opacity:1" />
      <path
         inkscape:connector-curvature="0"
         id="path4467"
         d="m 234,800.36218 0,90 9,0 0,-90 z"
         style="fill:none;fill-rule:evenodd;stroke:#ff0000;stroke-width:1.77165306;stroke-linecap:butt;stroke-linejoin:miter;stroke-miterlimit:4;stroke-dasharray:none;stroke-opacity:1" />
    </g>
    <text
       sodipodi:linespacing="125%"
       id="text4586"
       y="729.05188"
       x="555.97028"
       style="font-style:normal;font-variant:normal;font-weight:normal;font-stretch:normal;font-size:12.5px;line-height:125%;font-family:'My Underwood';-inkscape-font-specification:'My Underwood';letter-spacing:0px;word-spacing:0px;fill:#000000;fill-opacity:1;stroke:none;stroke-width:1px;stroke-linecap:butt;stroke-linejoin:miter;stroke-opacity:1"
       xml:space="preserve"><tspan
         y="729.05188"
         x="555.97028"
         id="tspan4588"
         sodipodi:role="line">cutoff</tspan></text>
    <text
       xml:space="preserve"
       style="font-style:normal;font-variant:normal;font-weight:normal;font-stretch:normal;font-size:12.5px;line-height:125%;font-family:'My Underwood';-inkscape-font-specification:'My Underwood';letter-spacing:0px;word-spacing:0px;fill:#000000;fill-opacity:1;stroke:none;stroke-width:1px;stroke-linecap:butt;stroke-linejoin:miter;stroke-opacity:1"
       x="444.7171"
       y="806.11798"
       id="text4590"
       sodipodi:linespacing="125%"><tspan
         sodipodi:role="line"
         id="tspan4592"
         x="444.7171"
         y="806.11798">peak</tspan></text>
    <text
       sodipodi:linespacing="125%"
       id="text4594"
       y="925.73883"
       x="376.15323"
       style="font-style:normal;font-variant:normal;font-weight:normal;font-stretch:normal;font-size:12.5px;line-height:125%;font-family:'My Underwood';-inkscape-font-specification:'My Underwood';letter-spacing:0px;word-spacing:0px;fill:#000000;fill-opacity:1;stroke:none;stroke-width:1px;stroke-linecap:butt;stroke-linejoin:miter;stroke-opacity:1"
       xml:space="preserve"><tspan
         y="925.73883"
         x="376.15323"
         sodipodi:role="line"
         id="tspan4598">CV1</tspan></text>
    <text
       xml:space="preserve"
       style="font-style:normal;font-variant:normal;font-weight:normal;font-stretch:normal;font-size:12.5px;line-height:125%;font-family:'My Underwood';-inkscape-font-specification:'My Underwood';letter-spacing:0px;word-spacing:0px;fill:#000000;fill-opacity:1;stroke:none;stroke-width:1px;stroke-linecap:butt;stroke-linejoin:miter;stroke-opacity:1"
       x="421.01169"
       y="926.12225"
       id="text4602"
       sodipodi:linespacing="125%"><tspan
         id="tspan4604"
         sodipodi:role="line"
         x="421.01169"
         y="926.12225">CV2</tspan></text>
    <text
       sodipodi:linespacing="125%"
       id="text4606"
       y="925.73883"
       x="460.50244"
       style="font-style:normal;font-variant:normal;font-weight:normal;font-stretch:normal;font-size:12.5px;line-height:125%;font-family:'My Underwood';-inkscape-font-specification:'My Underwood';letter-spacing:0px;word-spacing:0px;fill:#000000;fill-opacity:1;stroke:none;stroke-width:1px;stroke-linecap:butt;stroke-linejoin:miter;stroke-opacity:1"
       xml:space="preserve"><tspan
         y="925.73883"
         x="460.50244"
         sodipodi:role="line"
         id="tspan4608">[OUT]</tspan></text>
    <text
       xml:space="preserve"
       style="font-style:normal;font-variant:normal;font-weight:normal;font-stretch:normal;font-size:12.5px;line-height:125%;font-family:'My Underwood';-inkscape-font-specification:'My Underwood';letter-spacing:0px;word-spacing:0px;fill:#000000;fill-opacity:1;stroke:none;stroke-width:1px;stroke-linecap:butt;stroke-linejoin:miter;stroke-opacity:1"
       x="469.81647"
       y="863.1972"
       id="text4610"
       sodipodi:linespacing="125%"><tspan
         id="tspan4612"
         sodipodi:role="line"
         x="469.81647"
         y="863.1972">IN</tspan></text>
    <text
       xml:space="preserve"
       style="font-style:normal;font-variant:normal;font-weight:normal;font-stretch:normal;font-size:12.5px;line-height:125%;font-family:'My Underwood';-inkscape-font-specification:'My Underwood';letter-spacing:0px;word-spacing:0px;fill:#000000;fill-opacity:1;stroke:none;stroke-width:1px;stroke-linecap:butt;stroke-linejoin:miter;stroke-opacity:1"
       x="295.75613"
       y="854.14307"
       id="text4614"
       sodipodi:linespacing="125%"><tspan
         id="tspan4616"
         sodipodi:role="line"
         x="295.75613"
         y="854.14307">cv amt</tspan></text>
    <text
       sodipodi:linespacing="125%"
       id="text4618"
       y="542.91986"
       x="388.11703"
       style="font-style:normal;font-variant:normal;font-weight:normal;font-stretch:normal;font-size:20px;line-height:125%;font-family:'My Underwood';-inkscape-font-specification:'My Underwood';letter-spacing:0px;word-spacing:0px;fill:#000000;fill-opacity:1;stroke:none;stroke-width:1px;stroke-linecap:butt;stroke-linejoin:miter;stroke-opacity:1"
       xml:space="preserve"><tspan
         y="542.91986"
         x="388.11703"
         id="tspan4620"
         sodipodi:role="line">MS20VCF</tspan></text>
    <text
       sodipodi:linespacing="125%"
       id="text4622"
       y="568.35858"
       x="546.79871"
       style="font-style:normal;font-variant:normal;font-weight:normal;font-stretch:normal;font-size:12.5px;line-height:125%;font-family:'My Underwood';-inkscape-font-specification:'My Underwood';letter-spacing:0px;word-spacing:0px;fill:#000000;fill-opacity:1;stroke:none;stroke-width:1px;stroke-linecap:butt;stroke-linejoin:miter;stroke-opacity:1"
       xml:space="preserve"><tspan
         y="568.35858"
         x="546.79871"
         id="tspan4624"
         sodipodi:role="line">2-pole lowpass vcf</tspan></text>
    <text
       sodipodi:linespacing="125%"
       id="text4626"
       y="724.4696"
       x="399.92093"
       style="font-style:normal;font-variant:normal;font-weight:normal;font-stretch:normal;font-size:20px;line-height:125%;font-family:'My Underwood';-inkscape-font-specification:'My Underwood';letter-spacing:0px;word-spacing:0px;fill:#000000;fill-opacity:1;stroke:none;stroke-width:1px;stroke-linecap:butt;stroke-linejoin:miter;stroke-opacity:1"
       xml:space="preserve"><tspan
         y="724.4696"
         x="399.92093"
         id="tspan4628"
         sodipodi:role="line">cutoff</tspan></text>
    <path
       inkscape:connector-curvature="0"
       id="path4632"
       d="m 560.25,881.36218 -4.5,-6.75 4.5,-4.5 -4.5,-6.75"
       style="fill:none;fill-rule:evenodd;stroke:#ff0000;stroke-width:0.35433072;stroke-linecap:butt;stroke-linejoin:miter;stroke-miterlimit:4;stroke-dasharray:none;stroke-opacity:1" />
    <g
       id="g4636"
       transform="translate(1.1494155,-4.4999974)">
      <path
         inkscape:connector-curvature="0"
         id="path4630"
         d="m 387,883.61218 -4.5,-6.75 4.5,-4.5 -4.5,-6.75"
         style="fill:none;fill-rule:evenodd;stroke:#ff0000;stroke-width:0.35433072;stroke-linecap:butt;stroke-linejoin:miter;stroke-miterlimit:4;stroke-dasharray:none;stroke-opacity:1" />
      <path
         style="fill:none;fill-rule:evenodd;stroke:#ff0000;stroke-width:0.35433072;stroke-linecap:butt;stroke-linejoin:miter;stroke-miterlimit:4;stroke-dasharray:none;stroke-opacity:1"
         d="m 389.25,883.61218 -4.5,-6.75 4.5,-4.5 -4.5,-6.75"
         id="path4634"
         inkscape:connector-curvature="0" />
    </g>
    <g
       transform="translate(46.199552,-4.4999974)"
       id="g4640">
      <path
         style="fill:none;fill-rule:evenodd;stroke:#ff0000;stroke-width:0.35433072;stroke-linecap:butt;stroke-linejoin:miter;stroke-miterlimit:4;stroke-dasharray:none;stroke-opacity:1"
         d="m 387,883.61218 -4.5,-6.75 4.5,-4.5 -4.5,-6.75"
         id="path4642"
         inkscape:connector-curvature="0" />
      <path
         inkscape:connector-curvature="0"
         id="path4644"
         d="m 389.25,883.61218 -4.5,-6.75 4.5,-4.5 -4.5,-6.75"
         style="fill:none;fill-rule:evenodd;stroke:#ff0000;stroke-width:0.35433072;stroke-linecap:butt;stroke-linejoin:miter;stroke-miterlimit:4;stroke-dasharray:none;stroke-opacity:1" />
    </g>
    <text
       xml:space="preserve"
       style="font-style:normal;font-variant:normal;font-weight:normal;font-stretch:normal;font-size:12.5px;line-height:125%;font-family:'My Underwood';-inkscape-font-specification:'My Underwood';text-align:center;letter-spacing:0px;word-spacing:0px;text-anchor:middle;fill:#000000;fill-opacity:1;stroke:none;stroke-width:1px;stroke-linecap:butt;stroke-linejoin:miter;stroke-opacity:1"
       x="431.65997"
       y="558.09003"
       id="text4646"
       sodipodi:linespacing="125%"><tspan
         sodipodi:role="line"
         x="431.65997"
         y="558.09003"
         id="tspan4654">12dB lowpass</tspan></text>
    <path
       style="fill:none;fill-rule:evenodd;stroke:#ff0000;stroke-width:0.35433072;stroke-linecap:butt;stroke-linejoin:miter;stroke-miterlimit:4;stroke-dasharray:none;stroke-opacity:1"
       d="m 373.58858,743.79607 0,40.95505 49.5,0"
       id="path4660"
       inkscape:connector-curvature="0" />
    <path
       style="fill:none;fill-rule:evenodd;stroke:#ff0000;stroke-width:0.35433072;stroke-linecap:butt;stroke-linejoin:miter;stroke-miterlimit:4;stroke-dasharray:none;stroke-opacity:1"
       d="m 375.83858,757.75112 24.75,0 4.5,-9 15.75,31.5"
       id="path4662"
       inkscape:connector-curvature="0" />
  </g>
  <g
     inkscape:groupmode="layer"
     id="layer5"
     inkscape:label="Knobs outlines"
     style="display:none">
    <circle
       id="path3884"
       style="display:inline;fill:none;stroke:#000000;stroke-width:0.35433072;stroke-miterlimit:4;stroke-dasharray:none;stroke-opacity:1"
       cx="459"
       cy="764.36218"
       r="26.427053" />
    <ellipse
       cy="656.36218"
       cx="432"
       style="display:inline;fill:none;stroke:#000000;stroke-width:0.63709003;stroke-miterlimit:4;stroke-dasharray:none;stroke-opacity:1"
       id="circle5445"
       rx="47.516102"
       ry="47.516098" />
    <circle
       id="circle5447"
       style="display:inline;fill:none;stroke:#000000;stroke-width:0.35433072;stroke-miterlimit:4;stroke-dasharray:none;stroke-opacity:1"
       cx="204.75"
       cy="593.36218"
       r="26.427053" />
    <circle
       r="26.427053"
       cy="604.61218"
       cx="202.5"
       style="display:inline;fill:none;stroke:#000000;stroke-width:0.35433072;stroke-miterlimit:4;stroke-dasharray:none;stroke-opacity:1"
       id="circle5449" />
    <circle
       id="circle5523"
       style="display:inline;fill:none;stroke:#000000;stroke-width:0.35433072;stroke-miterlimit:4;stroke-dasharray:none;stroke-opacity:1"
       cx="387"
       cy="899.36218"
       r="16.718628" />
    <circle
       cy="584.36218"
       cx="373.5"
       style="display:inline;fill:none;stroke:#000000;stroke-width:0.18577147;stroke-miterlimit:4;stroke-dasharray:none;stroke-opacity:1"
       id="circle5525"
       r="8.7653818" />
    <circle
       id="circle5527"
       style="display:inline;fill:none;stroke:#000000;stroke-width:0.35433072;stroke-miterlimit:4;stroke-dasharray:none;stroke-opacity:1"
       cx="477"
       cy="899.36218"
       r="16.718628" />
    <circle
       r="16.718628"
       cy="899.36218"
       cx="432"
       style="display:inline;fill:none;stroke:#000000;stroke-width:0.35433072;stroke-miterlimit:4;stroke-dasharray:none;stroke-opacity:1"
       id="circle5529" />
    <circle
       r="8.7653818"
       id="circle4838"
       style="display:inline;fill:none;stroke:#000000;stroke-width:0.18577147;stroke-miterlimit:4;stroke-dasharray:none;stroke-opacity:1"
       cx="490.5"
       cy="584.36218" />
    <circle
       r="8.7653818"
       id="circle4947"
       style="display:inline;fill:none;stroke:#000000;stroke-width:0.18577147;stroke-miterlimit:4;stroke-dasharray:none;stroke-opacity:1"
       cx="373.5"
       cy="728.36218" />
    <circle
       r="16.718628"
       cy="836.36218"
       cx="477"
       style="display:inline;fill:none;stroke:#000000;stroke-width:0.35433072;stroke-miterlimit:4;stroke-dasharray:none;stroke-opacity:1"
       id="circle4658" />
  </g>
</svg>
